<mxfile host="Electron" agent="Mozilla/5.0 (Windows NT 10.0; Win64; x64) AppleWebKit/537.36 (KHTML, like Gecko) draw.io/27.0.9 Chrome/134.0.6998.205 Electron/35.4.0 Safari/537.36" version="27.0.9">
  <diagram name="Страница — 1" id="23oo12RKzdnBg4Xddf2q">
    <mxGraphModel dx="1665" dy="883" grid="1" gridSize="10" guides="1" tooltips="1" connect="1" arrows="1" fold="1" page="1" pageScale="1" pageWidth="827" pageHeight="1169" math="0" shadow="0">
      <root>
        <mxCell id="0" />
        <mxCell id="1" parent="0" />
        <mxCell id="44UAoA17k8_WEQ0NdKp_-3" style="edgeStyle=orthogonalEdgeStyle;rounded=0;orthogonalLoop=1;jettySize=auto;html=1;exitX=0.5;exitY=1;exitDx=0;exitDy=0;entryX=0.5;entryY=0;entryDx=0;entryDy=0;" edge="1" parent="1" source="44UAoA17k8_WEQ0NdKp_-1" target="44UAoA17k8_WEQ0NdKp_-2">
          <mxGeometry relative="1" as="geometry" />
        </mxCell>
        <mxCell id="44UAoA17k8_WEQ0NdKp_-1" value="НАЧАЛО" style="rounded=1;whiteSpace=wrap;html=1;" vertex="1" parent="1">
          <mxGeometry x="330" y="30" width="120" height="60" as="geometry" />
        </mxCell>
        <mxCell id="44UAoA17k8_WEQ0NdKp_-6" style="edgeStyle=orthogonalEdgeStyle;rounded=0;orthogonalLoop=1;jettySize=auto;html=1;exitX=0.5;exitY=1;exitDx=0;exitDy=0;entryX=0.5;entryY=0;entryDx=0;entryDy=0;" edge="1" parent="1" source="44UAoA17k8_WEQ0NdKp_-2" target="44UAoA17k8_WEQ0NdKp_-4">
          <mxGeometry relative="1" as="geometry" />
        </mxCell>
        <mxCell id="44UAoA17k8_WEQ0NdKp_-2" value="Ввод числа К" style="rounded=0;whiteSpace=wrap;html=1;" vertex="1" parent="1">
          <mxGeometry x="330" y="130" width="120" height="60" as="geometry" />
        </mxCell>
        <mxCell id="44UAoA17k8_WEQ0NdKp_-7" style="edgeStyle=orthogonalEdgeStyle;rounded=0;orthogonalLoop=1;jettySize=auto;html=1;exitX=0.5;exitY=1;exitDx=0;exitDy=0;entryX=0.5;entryY=0;entryDx=0;entryDy=0;" edge="1" parent="1" source="44UAoA17k8_WEQ0NdKp_-4" target="44UAoA17k8_WEQ0NdKp_-5">
          <mxGeometry relative="1" as="geometry" />
        </mxCell>
        <mxCell id="44UAoA17k8_WEQ0NdKp_-4" value="Создание счётчика:&lt;div&gt;i = 1&lt;/div&gt;" style="rounded=0;whiteSpace=wrap;html=1;" vertex="1" parent="1">
          <mxGeometry x="330" y="220" width="120" height="60" as="geometry" />
        </mxCell>
        <mxCell id="44UAoA17k8_WEQ0NdKp_-9" style="edgeStyle=orthogonalEdgeStyle;rounded=0;orthogonalLoop=1;jettySize=auto;html=1;exitX=1;exitY=0.5;exitDx=0;exitDy=0;entryX=0.5;entryY=0;entryDx=0;entryDy=0;" edge="1" parent="1" source="44UAoA17k8_WEQ0NdKp_-5" target="44UAoA17k8_WEQ0NdKp_-8">
          <mxGeometry relative="1" as="geometry" />
        </mxCell>
        <mxCell id="44UAoA17k8_WEQ0NdKp_-20" value="ДА" style="edgeLabel;html=1;align=center;verticalAlign=middle;resizable=0;points=[];" vertex="1" connectable="0" parent="44UAoA17k8_WEQ0NdKp_-9">
          <mxGeometry x="-0.7385" relative="1" as="geometry">
            <mxPoint as="offset" />
          </mxGeometry>
        </mxCell>
        <mxCell id="44UAoA17k8_WEQ0NdKp_-18" style="edgeStyle=orthogonalEdgeStyle;rounded=0;orthogonalLoop=1;jettySize=auto;html=1;exitX=0;exitY=0.5;exitDx=0;exitDy=0;entryX=0;entryY=0.5;entryDx=0;entryDy=0;" edge="1" parent="1" source="44UAoA17k8_WEQ0NdKp_-5" target="44UAoA17k8_WEQ0NdKp_-17">
          <mxGeometry relative="1" as="geometry">
            <Array as="points">
              <mxPoint x="270" y="365" />
              <mxPoint x="270" y="750" />
            </Array>
          </mxGeometry>
        </mxCell>
        <mxCell id="44UAoA17k8_WEQ0NdKp_-19" value="НЕТ" style="edgeLabel;html=1;align=center;verticalAlign=middle;resizable=0;points=[];" vertex="1" connectable="0" parent="44UAoA17k8_WEQ0NdKp_-18">
          <mxGeometry x="-0.8566" relative="1" as="geometry">
            <mxPoint as="offset" />
          </mxGeometry>
        </mxCell>
        <mxCell id="44UAoA17k8_WEQ0NdKp_-5" value="i &amp;lt;= 10?" style="rhombus;whiteSpace=wrap;html=1;" vertex="1" parent="1">
          <mxGeometry x="335" y="320" width="110" height="90" as="geometry" />
        </mxCell>
        <mxCell id="44UAoA17k8_WEQ0NdKp_-11" style="edgeStyle=orthogonalEdgeStyle;rounded=0;orthogonalLoop=1;jettySize=auto;html=1;exitX=0.5;exitY=1;exitDx=0;exitDy=0;entryX=0.5;entryY=0;entryDx=0;entryDy=0;" edge="1" parent="1" source="44UAoA17k8_WEQ0NdKp_-8" target="44UAoA17k8_WEQ0NdKp_-10">
          <mxGeometry relative="1" as="geometry" />
        </mxCell>
        <mxCell id="44UAoA17k8_WEQ0NdKp_-8" value="Вычислить: result = K * 1" style="rounded=0;whiteSpace=wrap;html=1;" vertex="1" parent="1">
          <mxGeometry x="480" y="400" width="120" height="60" as="geometry" />
        </mxCell>
        <mxCell id="44UAoA17k8_WEQ0NdKp_-15" style="edgeStyle=orthogonalEdgeStyle;rounded=0;orthogonalLoop=1;jettySize=auto;html=1;exitX=0.5;exitY=1;exitDx=0;exitDy=0;entryX=0.5;entryY=0;entryDx=0;entryDy=0;" edge="1" parent="1" source="44UAoA17k8_WEQ0NdKp_-10" target="44UAoA17k8_WEQ0NdKp_-12">
          <mxGeometry relative="1" as="geometry" />
        </mxCell>
        <mxCell id="44UAoA17k8_WEQ0NdKp_-10" value="Вывести: K, &quot; * &quot;, i , &quot; = &quot;, result" style="rounded=0;whiteSpace=wrap;html=1;" vertex="1" parent="1">
          <mxGeometry x="445" y="490" width="190" height="60" as="geometry" />
        </mxCell>
        <mxCell id="44UAoA17k8_WEQ0NdKp_-13" style="edgeStyle=orthogonalEdgeStyle;rounded=0;orthogonalLoop=1;jettySize=auto;html=1;exitX=0;exitY=0.5;exitDx=0;exitDy=0;entryX=0.5;entryY=1;entryDx=0;entryDy=0;" edge="1" parent="1" source="44UAoA17k8_WEQ0NdKp_-12" target="44UAoA17k8_WEQ0NdKp_-5">
          <mxGeometry relative="1" as="geometry" />
        </mxCell>
        <mxCell id="44UAoA17k8_WEQ0NdKp_-12" value="Увеличить счётчик: i =&amp;nbsp; i + 1" style="rounded=0;whiteSpace=wrap;html=1;" vertex="1" parent="1">
          <mxGeometry x="480" y="585" width="120" height="60" as="geometry" />
        </mxCell>
        <mxCell id="44UAoA17k8_WEQ0NdKp_-17" value="КОНЕЦ" style="rounded=1;whiteSpace=wrap;html=1;" vertex="1" parent="1">
          <mxGeometry x="350" y="720" width="120" height="60" as="geometry" />
        </mxCell>
        <mxCell id="44UAoA17k8_WEQ0NdKp_-21" value="&lt;span style=&quot;font-size: 18px;&quot;&gt;ДМИТРИЕВА&lt;/span&gt;" style="text;html=1;align=center;verticalAlign=middle;resizable=0;points=[];autosize=1;strokeColor=none;fillColor=none;" vertex="1" parent="1">
          <mxGeometry x="470" y="190" width="130" height="40" as="geometry" />
        </mxCell>
      </root>
    </mxGraphModel>
  </diagram>
</mxfile>
